<svg id="Layer_1" data-name="Layer 1" xmlns="http://www.w3.org/2000/svg" viewBox="0 0 284.25 169.86"><defs><style>.cls-1{fill:#fff;}.cls-2{fill:#f90;}</style></defs><path class="cls-1" d="M239.82,162.58c-4.48,18.81-8.89,37.64-13.52,56.41-.63,2.56-2,6.58-3.64,6.91-4.41.87-9.16.31-13.73-.15-.87-.09-1.81-2.24-2.23-3.58q-11.38-37-22.6-74c-.46-1.49-.34-3.16-.55-5.32,4.48,0,8.56-.59,12.31.25,1.88.43,4,3.24,4.59,5.36,4.31,16,8.25,32,12.31,48,1,4,2.07,8,3.37,13a40,40,0,0,0,1.52-4.09q6.57-27.75,13.07-55.52c1.61-6.88,1.84-7.07,8.93-7.1,9.07,0,9.08,0,11.13,8.6q6.36,26.77,12.72,53.56c.38,1.59.85,3.15,1.65,6.07,3.35-13,6.37-24.6,9.4-36.26,2.2-8.48,4.66-16.9,6.53-25.46,1.08-4.92,3.35-6.79,8.49-6.62,9.59.33,9.62.06,6.79,9.12C289.22,174.65,282,197.5,275,220.44c-1.38,4.55-3.52,6.91-8.4,6.19a13.21,13.21,0,0,0-2,0c-8.16,0-8.15,0-10.1-8.09q-6.39-26.52-12.81-53c-.26-1.05-.67-2.07-1-3.1Z" transform="translate(-94.44 -140.04)"/><path class="cls-2" d="M95.64,253c1.7.75,3.48,1.35,5.09,2.26a277.46,277.46,0,0,0,91,32,270.68,270.68,0,0,0,82.6,1.62,295.36,295.36,0,0,0,71.8-19c1.35-.55,3-1.22,4.26-.95,2.71.55,4.3,2.22,2,4.91a21.68,21.68,0,0,1-4.19,3.47c-22.24,15.3-47.05,24.5-73.42,29.06-60.3,10.44-115.57-1.88-165-38.33-4.26-3.14-8.32-6.57-12.38-10a24.45,24.45,0,0,1-2.9-3.53Z" transform="translate(-94.44 -140.04)"/><path class="cls-1" d="M159.36,216c-7.89,8.76-17.29,13.14-28.85,12.7-13.17-.5-22.39-7.65-24.31-19.11-2.36-14.14,4-25.45,16.76-30.12,10.61-3.87,21.24-2.3,31.89-.34,1.11.21,2.24.35,4.38.67-.65-5.84-.86-11.27-1.94-16.52-1.16-5.66-5.55-8.25-11-9.46-9.68-2.17-18.69.52-27.76,3.35-2.18.68-5.84,1.34-6.82.24-2.39-2.69-.1-9.58,3.12-11.1a61.58,61.58,0,0,1,29.94-5.78,48.94,48.94,0,0,1,8.35,1.17c13.17,3,20.13,11.66,20.59,26.07.32,10.26-.35,20.56.3,30.78.39,6.13,2.08,12.26,3.94,18.16.94,3,.7,4.66-1.78,6.23a26.36,26.36,0,0,0-3.28,2.24c-3.5,3-6.32,2.08-8.67-1.45C162.7,221.37,161.25,219,159.36,216Zm-17.48-28.29c-3.33.42-6.17.56-8.91,1.17a13.34,13.34,0,0,0-10.93,13c-.34,7.44,2.44,12.1,8.41,14.09,14.77,4.94,30.74-8.2,28.32-23.41a4.14,4.14,0,0,0-2.64-2.73C151.26,188.86,146.32,188.31,141.88,187.68Z" transform="translate(-94.44 -140.04)"/><path class="cls-1" d="M330.22,229.37c-4.2-1-12.12-2.64-19.82-5-4.71-1.43-7-7.46-4.74-11.74.48-.91,3.79-1.18,5.3-.55a54.14,54.14,0,0,0,24.77,4.33,32.35,32.35,0,0,0,9.6-2.18,10.14,10.14,0,0,0,6.78-9.57,9.55,9.55,0,0,0-6.43-9.71c-6.78-2.63-14-4.27-20.57-7.29-5.12-2.34-10.72-5.22-14.13-9.45-10-12.42-4.24-29.32,11.52-35.36,11.94-4.57,23.82-3.19,35.44,1.33,4.43,1.73,6.29,6.66,4.82,11.17-1.09,3.35-3.4,2-5.23,1.16a44,44,0,0,0-22.34-3.59,23.43,23.43,0,0,0-8.1,2.06c-6.67,3.26-7.64,12-1.62,16.37,3.28,2.36,7.31,3.79,11.15,5.23,5.27,2,10.78,3.32,16,5.35,8.13,3.15,13.65,8.7,14.61,17.79,1,9.75-2.39,17.57-10.49,23.16C350,227.58,342.19,229,330.22,229.37Z" transform="translate(-94.44 -140.04)"/><path class="cls-2" d="M327.12,257.1c6.36-5.65,14.34-8.16,22.47-8.9,7.81-.72,15.81.26,23.7.89,3.51.28,5.6,2.58,5.38,6.46-.86,15.37-5.9,29-16.63,40.32a13,13,0,0,1-2.32,1.84,9.09,9.09,0,0,1-2.35.46c1.5-4.15,3-7.69,4.05-11.36,1.91-6.8,3.75-13.63,5.21-20.53,1.05-4.95-1.44-8.41-6.46-8.52-9.38-.2-18.77.26-28.15.48-1.52,0-3,.27-4.56.41Z" transform="translate(-94.44 -140.04)"/></svg>