<svg id="Layer_1" data-name="Layer 1" xmlns="http://www.w3.org/2000/svg" viewBox="0 0 800 800"><defs><style>.cls-1{fill:#595959;}</style></defs><path d="M800,210.23V722.51c0,42.8-35.19,77.49-78.6,77.49H78.6C35.19,800,0,765.31,0,722.51V210.23"/><path class="cls-1" d="M0,201.81V78.6A78.6,78.6,0,0,1,78.6,0H721.4A78.6,78.6,0,0,1,800,78.6V201.81"/><rect class="cls-1" x="53.17" y="288.36" width="245.11" height="50.55" rx="25.28"/><rect class="cls-1" x="53.17" y="363.42" width="531.57" height="50.55" rx="25.28"/><rect class="cls-1" x="53.17" y="438.49" width="380.68" height="50.55" rx="25.28"/><rect class="cls-1" x="53.17" y="513.55" width="212.94" height="50.55" rx="25.28"/><rect class="cls-1" x="53.17" y="588.62" width="301.02" height="50.55" rx="25.28"/></svg>