<svg id="Layer_1" data-name="Layer 1" xmlns="http://www.w3.org/2000/svg" viewBox="0 0 362.66 298.58"><defs><style>.cls-1{fill:#fff;}</style></defs><path class="cls-1" d="M19.68,126.94c8,6.72,14.93,12.58,21.88,18.47q55.29,46.88,110.6,93.73c28.69,24.23,68.47,24.52,97.2.37,43.12-36.24,86-72.77,129-109.18,1-.83,2-1.61,3.65-2.93.14,2.22.33,3.77.33,5.33q0,88.74,0,177.48c0,21.24-13.06,34.3-34.27,34.3q-147,0-294,0c-21.25,0-34.3-13-34.32-34.25q-.06-88.74,0-177.48Z" transform="translate(-19.67 -45.96)"/><path class="cls-1" d="M201.05,46q73.77,0,147.55,0c16.89,0,29.67,9.52,32.88,24.93,1.07,5.15.77,10.61.7,15.92,0,1.35-1.31,3-2.46,4Q301,158.05,222.2,225.13c-13.18,11.19-29.65,10.87-42.86-.38Q100.91,158,22.64,91a8.76,8.76,0,0,1-2.79-6.25c.4-6.57.22-13.65,2.65-19.54C27.92,52.09,38.72,45.94,53,46q51.51.06,103,0Z" transform="translate(-19.67 -45.96)"/></svg>