<svg id="Layer_1" data-name="Layer 1" xmlns="http://www.w3.org/2000/svg" xmlns:xlink="http://www.w3.org/1999/xlink" viewBox="0 0 800 800"><defs><style>.cls-1{fill:url(#linear-gradient);}</style><linearGradient id="linear-gradient" x1="471.44" y1="575.57" x2="694.54" y2="781.51" gradientTransform="matrix(1, 0, 0, -1, 61.9, 932.01)" gradientUnits="userSpaceOnUse"><stop offset="0.03" stop-color="#fff"/><stop offset="0.04" stop-color="#f8f8f8"/><stop offset="0.07" stop-color="#cacaca"/><stop offset="0.1" stop-color="#9f9f9f"/><stop offset="0.14" stop-color="#797979"/><stop offset="0.18" stop-color="#595959"/><stop offset="0.23" stop-color="#3d3d3d"/><stop offset="0.81" stop-color="#020202"/></linearGradient></defs><path d="M563.16,39.47H142.28A80.38,80.38,0,0,0,61.9,119.85V759.09a80.38,80.38,0,0,0,80.38,80.38H781.52a80.38,80.38,0,0,0,80.38-80.38V342.58ZM315.37,758.68A36.38,36.38,0,0,1,279,795.06H162.18a36.38,36.38,0,0,1-36.38-36.38V641.87a36.38,36.38,0,0,1,36.38-36.38H279a36.38,36.38,0,0,1,36.38,36.38Zm0-254.11A36.38,36.38,0,0,1,279,541H162.18a36.38,36.38,0,0,1-36.38-36.38V387.76a36.38,36.38,0,0,1,36.38-36.38H279a36.38,36.38,0,0,1,36.38,36.38Zm0-254.1A36.38,36.38,0,0,1,279,286.85H162.18a36.38,36.38,0,0,1-36.38-36.38V133.66a36.38,36.38,0,0,1,36.38-36.38H279a36.38,36.38,0,0,1,36.38,36.38Z" transform="translate(-61.9 -39.47)"/><path class="cls-1" d="M861.9,342.58H637.44a74.28,74.28,0,0,1-74.28-74.28h0V39.47" transform="translate(-61.9 -39.47)"/></svg>