<svg id="Layer_1" data-name="Layer 1" xmlns="http://www.w3.org/2000/svg" viewBox="0 0 225 219.58"><defs><style>.cls-1{fill:#fff;}</style></defs><path class="cls-1" d="M361.91,242.44c-1.56,7.1-2.61,14.36-4.76,21.27-11.08,35.69-34.25,60.22-69,73.72-7.49,2.91-10.76.59-10.72-7.34,0-8.5.32-17,.27-25.5,0-8.07-.78-16-7.31-23,4-.78,7.25-1.4,10.54-2.08,25.18-5.17,38.83-21.37,40.2-46.95.7-13.11-1.26-25.19-9.95-35.59-.72-.86-.67-2.74-.38-4a44.56,44.56,0,0,0-.8-23.64c-1-3.25-2.81-4.63-5.79-3.48-7.69,3-15.21,6.34-22.9,9.29-2.27.88-5.05,1.63-7.31,1.14-16-3.51-32-3.84-48,.11-3.18.79-5.5,0-8.36-1.32-7.47-3.45-15.21-6.36-22.93-9.25-2.55-.95-4.18.18-5.08,3.09a45.44,45.44,0,0,0-1.16,23.14,8.27,8.27,0,0,1-.91,5.84c-22.46,31-6.18,73.89,31.09,81.66,3.23.67,6.49,1.23,9.17,1.73-1.78,4.4-3.33,8.71-5.29,12.82a7.38,7.38,0,0,1-3.64,3.44c-11.79,4.49-21.76,1.19-29.08-9.46-3.94-5.74-8.27-11-15.69-12.1-2.27-.33-4.68.3-8.49.6,2.14,2.45,3.28,3.72,4.39,5,4.14,4.88,10,9.14,12.07,14.78,5.28,14.67,18.92,18.28,33.11,16.59,1.94-.23,3.88-.39,6.46-.64,0,7.33.25,14.14-.09,20.93-.23,4.7-4,6.43-9.37,4.6A106.93,106.93,0,0,1,176.11,317c-21.82-19.08-34.8-42.93-38.32-71.81a15.82,15.82,0,0,0-.88-2.79v-22a14.84,14.84,0,0,0,.88-2.77A112.43,112.43,0,0,1,358,202.55c1.59,5.88,2.61,11.92,3.89,17.88Z" transform="translate(-136.91 -119.05)"/></svg>