<svg id="Layer_1" data-name="Layer 1" xmlns="http://www.w3.org/2000/svg" viewBox="0 0 2048 2048"><defs><style>.cls-1{fill:#fff;}</style></defs><path class="cls-1" d="M-741,1017.54v-1598c.39-2.27.89-4.53,1.14-6.81,1.22-11,1.52-22.26,3.68-33.11,11.89-59.79,42.67-107.69,92.37-143,35.69-25.36,75.64-39,119.49-40.9,3.12-.13,6.22-.77,9.32-1.17H1081c2.27.37,4.53.9,6.82,1.11,9.26.84,18.63,1,27.76,2.49,52.33,8.85,96.69,32.68,132.27,72.15q48.87,54.24,56.91,127.06c.7,6.4,1.49,12.79,2.24,19.19v1604c-.44,2.59-1,5.17-1.3,7.77-1.17,9.71-1.59,19.57-3.5,29.13-12,59.77-42.74,107.63-92.36,143a217.55,217.55,0,0,1-105.11,39.77c-7.57.8-15.15,1.54-22.73,2.31H-516c-3.27-.43-6.54-1.11-9.83-1.23-23.62-.93-46.7-5.31-68.36-14.49-89.84-38.07-139-105.64-145.71-203.48A46.63,46.63,0,0,0-741,1017.54ZM367.27,100.16V-21.33c0-7.48,0-7.5-7.37-7.5h-280c-7.27,0-7.28,0-7.28,7.52V951.14c0,7.75,0,7.76,7.54,7.76H359.66c7.6,0,7.6,0,7.61-7.77v-5q0-249.73.09-499.47c0-16,.78-31.94,2.06-47.84a243.34,243.34,0,0,1,19.77-79.45c18.07-40.82,46.8-70.92,89.1-86.76,35-13.12,71.21-15.73,108-9.8q69.87,11.26,103,74c20.18,38.28,27.81,79.93,28,122.4.78,177.32.4,354.65.45,532,0,7.72,0,7.73,7.64,7.73h289c9.94,0,9,.86,9-9.26q0-305,0-610c0-32.65-1.93-65.14-6.86-97.45-6.17-40.34-16.87-79.32-34.28-116.29C953.1,64,909.19,15.78,848.56-16.6,795.37-45,737.94-56.67,678.23-58.72A376.41,376.41,0,0,0,591.87-52C512.25-36.17,446.72,3.49,394.17,64.93,384.7,76,376.44,88.08,367.27,100.16ZM-428.11,464.53q0,243,0,486c0,8.39,0,8.39,8.5,8.39h291c7.74,0,7.76,0,7.76-7.64V-21.19c0-7.63,0-7.64-7.76-7.64H-419.09c-9,0-9,0-9,8.89ZM-94.63-339c-.44-101-80.46-182.46-180.92-182.66s-181.53,80.84-181.69,182.33c-.16,100.77,79.65,182.84,181.12,183C-174.18-156.32-95.07-238.81-94.63-339Z" transform="translate(741 805.46)"/></svg>