<svg id="Layer_1" data-name="Layer 1" xmlns="http://www.w3.org/2000/svg" viewBox="0 0 692.85 685.06"><defs><style>.cls-1{fill:#fff;}</style></defs><path d="M3.08,685.06A3.08,3.08,0,0,1,0,682V3.17A3.19,3.19,0,0,1,3.16,0H692.85V684.92c-1,.05-2.07.14-3.11.14M241.8,221.3l.73-.18c.55.76,1.12,1.5,1.65,2.28L370.5,409.61c11.3,16.66,22.09,33.7,34,49.92,37.63,51.29,75.67,102.27,113.56,153.36,4.47,6,9,12,13.69,18.19L558,615.37c-.69-1.11-1.09-1.79-1.52-2.45L461.16,468.55q-73.61-111.49-147.23-223-35.48-53.67-71.19-107.19c-2.57-3.86-6.07-6.14-10.72-6.28-7.51-.23-15-.26-22.53-.48-6.56-.18-11.58,2.62-15.31,7.82a7.18,7.18,0,0,0-1.33,3.87q-.22,31.19-.25,62.38-.09,40.68-.16,81.35-.06,82.08-.14,164.15a14.39,14.39,0,0,0,2.63,8.49c2.13,3.1,5.08,6.1,8.67,6.28a248.23,248.23,0,0,0,25.88-.34c5.59-.32,10.74-6.11,10.88-11.68.38-14.3.79-28.6.87-42.91.2-40.79.23-81.59.35-122.38,0-18,.16-36,.23-54C241.82,230.22,241.8,225.76,241.8,221.3Zm246,193.12.53-.15V411.7q.09-59.51.17-119c0-5,.08-9.92.07-14.88-.15-47.82-.39-95.64-.38-143.47,0-5.7-6.25-13-12-13.22-7.34-.28-14.69-.35-22-.27a15.18,15.18,0,0,0-6.22,1.4c-6.2,3-8.69,8.23-8.72,15-.08,16.62-.41,33.25-.43,49.88q-.09,74.75,0,149.5a9.88,9.88,0,0,0,1.51,5.07q20.51,31.76,41.25,63.39l6.17,9.32Z" transform="translate(0 0)"/><path class="cls-1" d="M241.8,221.3v13.39c-.07,18-.18,36-.23,54-.12,40.79-.15,81.59-.35,122.38-.08,14.31-.49,28.61-.87,42.91-.14,5.57-5.29,11.36-10.88,11.68a248.45,248.45,0,0,1-25.89.34c-3.59-.18-6.54-3.18-8.67-6.28a14.39,14.39,0,0,1-2.63-8.49q.16-82.08.14-164.15,0-40.68.16-81.35.07-31.18.25-62.38a7.18,7.18,0,0,1,1.33-3.87c3.73-5.2,8.75-8,15.31-7.82,7.51.22,15,.25,22.53.48,4.65.14,8.15,2.42,10.72,6.28Q278.3,192,313.91,245.61,387.57,357,461.15,468.55q47.67,72.18,95.32,144.37c.43.66.83,1.34,1.52,2.45l-26.25,15.71c-4.68-6.22-9.22-12.17-13.69-18.19-37.89-51.09-75.93-102.07-113.56-153.36-11.9-16.22-22.69-33.26-34-49.92L244.18,223.4c-.53-.78-1.1-1.52-1.65-2.28Z" transform="translate(0 0)"/><path class="cls-1" d="M487.75,414.42q-3.08-4.67-6.14-9.32-20.72-31.68-41.37-63.41a9.88,9.88,0,0,1-1.51-5.07q-.12-74.74,0-149.5c0-16.63.35-33.26.43-49.88,0-6.76,2.52-12,8.72-15a15.18,15.18,0,0,1,6.22-1.4c7.35-.08,14.7,0,22,.27,5.79.21,12,7.52,12,13.22,0,47.83.23,95.65.38,143.47,0,5-.06,9.92-.07,14.88q-.09,59.51-.17,119v2.57Z" transform="translate(0 0)"/></svg>