<svg id="Layer_1" data-name="Layer 1" xmlns="http://www.w3.org/2000/svg" viewBox="0 0 396 394"><defs><style>.cls-1{fill:#5a4892;}</style></defs><path class="cls-1" d="M0,0H396V394H0ZM55.57,245.52c0,11.47,5.72,26,17.91,38C88.15,298,106.4,305.22,126,309.12c23.85,4.75,45.75,13.67,65.52,27.72,4,2.84,7.32,3.1,11.37.45,5.84-3.83,11.79-7.52,17.88-10.91A151.38,151.38,0,0,1,265,310.07c18.58-3.71,36.26-9.69,51.28-21.86C334.69,273.3,342,254,338.76,230.72c-2.07-14.82-9.28-27.66-16.83-40.25s-11.13-25.72-7.16-40.08c3.16-11.4,9.34-21.23,17.61-29.72,4.22-4.33,4.12-7.06.34-11.68Q314.4,86.6,296.23,64.06c-5.87-7.3-8.35-7.52-15.08-1.06-9.73,9.33-20.95,16.12-34.57,17.4C230,82,216.89,74.86,206.44,62.34c-7.42-8.9-10.16-8.91-17.79.06-.11.13-.2.27-.3.4-14.28,16.73-35.17,23.77-56.9,12.13-6.93-3.71-13.07-9-19.29-13.89-4-3.19-8.37-3.42-11.35.27q-19.57,24.24-39.1,48.5c-2.77,3.45-2.92,6.72.27,10.25a104,104,0,0,1,10.26,12.82c9.29,14.24,13.18,29.58,6.45,45.93-3.39,8.23-8.17,15.89-12.35,23.8C60.15,214.33,55.57,226.51,55.57,245.52Z"/><path class="cls-1" d="M106.4,74.7c8.89,4.92,16.78,10.29,25.42,13.85,21.39,8.8,41,4.57,58.55-10.12,7-5.83,7.06-6.2,13.76-.46,11.31,9.68,24,15.51,39.09,15,16.43-.61,30.52-7.32,43-17.78.49-.42,1-.79,1.78-1.36l33,40.69c-9.29,11-16.12,22.82-19.1,36.68-3.3,15.34.43,29.31,7.6,42.78,5.06,9.52,10.76,18.85,14.42,28.91,7.57,20.79,2.1,41.64-14.73,55.49-12.31,10.13-26.93,15.54-42.53,18.55A176.65,176.65,0,0,0,206,320.32a31.88,31.88,0,0,1-6,3.42,7.49,7.49,0,0,1-5.23.1c-12.31-6.14-24.11-13.49-36.84-18.55-11.16-4.44-23.31-6.38-35-9.44-17-4.42-32.86-10.84-44.28-25.07-11.81-14.73-13.47-31.3-7.19-48.44,3.51-9.59,8.69-18.63,13.68-27.6,10.24-18.43,13-37.3,3.69-56.78-3.92-8.16-8.92-15.8-13.86-24.43ZM84.5,242.05c1.11,3.79,1.89,7.7,3.37,11.34,3.91,9.57,11.92,15.36,20.88,19A218.35,218.35,0,0,0,141,282.14a188.06,188.06,0,0,1,50,19.48c5.1,2.86,9.17,2.48,13.92-.27,13.85-8,28.46-14.31,44.1-17.88,14.92-3.4,30-6.13,43.38-14.22,10.21-6.19,17.49-14.57,17.59-27.16.08-9.87-3.36-18.83-8.24-27.39-4.27-7.47-8.24-15.16-11.84-23-10.54-22.92-7.41-45.36,3.52-67.09,5.08-10.11,5.56-9.86-1.43-18.88-5.53-7.11-8-7.5-16.12-3.51-11.68,5.76-24.27,9.07-37.13,8-13-1.1-25.73-4.5-37-12-2.07-1.39-6.53-1.35-8.71,0a86.4,86.4,0,0,1-26.12,10.44c-16.9,3.8-32.67.59-47.9-6.63-3.77-1.79-7.85-4.1-11.1-.95-4.24,4.12-10.06,7.94-9.82,14.77.12,3.23,2.28,6.51,3.94,9.54a78.38,78.38,0,0,1,9.38,42.28c-.75,14.72-6.84,27.88-14.1,40.55C91.3,218.66,84.52,229,84.5,242.05Z"/><path class="cls-1" d="M124.29,164.19c-.78-14.61-3.35-28.75-9.82-42a14.83,14.83,0,0,1-1.52-3.68,21.11,21.11,0,0,1,0-4.2,17.64,17.64,0,0,1,4.1.62c25.93,10.64,51.44,10.38,76.35-3.1,2.87-1.55,5-1.55,7.81,0,13.94,8,29.18,11.14,45,10.36,11.28-.56,22.48-2.36,32.69-7.88.91-.49,3.16-.33,3.45.23a5.49,5.49,0,0,1,.12,4c-2.67,7.14-6.62,14-8.06,21.34a133.89,133.89,0,0,0-2.82,31c.65,15.94,8,29.93,15.55,43.73a122.87,122.87,0,0,1,9.5,22.28c3.09,10-2.81,16.91-10.53,21.51-6.33,3.77-13.59,6.19-20.7,8.35-12.7,3.87-25.74,6.67-38.38,10.73-7.85,2.52-15.38,6.22-22.74,10-5,2.6-8.79,2.55-14.16-.23A217.27,217.27,0,0,0,157.54,274c-12.27-4-25.07-6.41-37.4-10.27-5.25-1.64-10.1-4.91-14.75-8-10.2-6.78-9.23-18.17-4.59-28.2,4.11-8.88,9.41-17.2,13.89-25.93C120.7,189.85,123.47,177.25,124.29,164.19ZM230.66,176.4c-6.26,6.8-11.92,12.43-16.85,18.64-1.56,2-1.66,5.53-1.36,8.25.08.77,3.88,1.37,6,1.62,2.76.33,5.6,0,8.36.36,6.15.8,8.68,3.72,8.58,9.44-.11,6.31-3.48,10.83-9.24,10.89s-11.46-1-17.2-1.56c-2.2-.21-5.09-2.77-6.29,1.09-1,3.08-1.1,6.47,2.8,8,11.88,4.64,23.62,5.5,34.74-2,6.29-4.27,9.07-14.2,6.76-23.06-1.66-6.36-8.38-11.6-15.82-12.41a32.54,32.54,0,0,1-3.89-1c1.45-1.63,2.38-2.7,3.34-3.75,4.38-4.78,9.1-9.3,13-14.46,1.42-1.89,1.51-5.42.91-7.9-.25-1-3.83-1.77-5.91-1.81-10-.18-20,0-30-.12-3.65-.06-5,1.26-5,4.95s1.65,5,5.18,4.9C215.61,176.31,222.44,176.4,230.66,176.4Zm-60.54-9.76h0c-4.83,0-9.69-.24-14.49.16-1.39.11-3.65,1.95-3.78,3.19-.91,8.6-1.58,17.23-1.91,25.87-.28,7.67.46,7.83,7.93,7.08a51.28,51.28,0,0,1,13.83.51c5.84,1,8.7,5.45,8.27,11.27-.45,6.26-4.28,10.91-10.15,10.88a109,109,0,0,1-17.69-1.94c-4.56-.78-6.6.5-5.48,5a8.41,8.41,0,0,0,4.48,5.18c8.29,3,16.92,3.87,25.51,1.34a21.46,21.46,0,0,0,15.51-23.34c-1.41-11.42-8.2-18-20.21-19-11.16-1-11.09-.65-10.57-12.09.15-3.24,1.37-4.44,4.53-4.37,5.83.12,11.67-.14,17.5.08,3.85.15,5.33-1.21,5.33-5.14s-1.55-4.91-5.11-4.74C179.13,166.8,174.62,166.64,170.12,166.64Z"/></svg>