<svg id="Layer_1" data-name="Layer 1" xmlns="http://www.w3.org/2000/svg" viewBox="0 0 431.78 431.78"><defs><style>.cls-1{fill:#e5e5e5;}</style></defs><path class="cls-1" d="M923,250.43h76.87a0,0,0,0,1,0,0V446a38.44,38.44,0,0,1-38.44,38.44h0A38.44,38.44,0,0,1,923,446V250.43a0,0,0,0,1,0,0Z" transform="translate(-601.85 757.79) rotate(-45)"/><path class="cls-1" d="M670.59,76.61a160.34,160.34,0,1,0,226.75,0A160.33,160.33,0,0,0,670.59,76.61Zm192,192a111.14,111.14,0,1,1,0-157.18A111.15,111.15,0,0,1,862.56,268.58Z" transform="translate(-623.63 -29.65)"/></svg>