<svg id="Layer_1" data-name="Layer 1" xmlns="http://www.w3.org/2000/svg" viewBox="0 0 471.37 471.28"><defs><style>.cls-1{fill:#2ab540;}</style></defs><path class="cls-1" d="M207.89-17.37c109.87-.36,205.76,76.54,230.18,184.61,28.53,126.27-52,252.69-179.31,280.9-54.86,12.15-107.57,4.95-157.9-20.07a13.35,13.35,0,0,0-8.4-.95c-34.79,8.39-69.51,17-104.25,25.6-11.92,2.94-17.79-3.11-14.47-15C-17,404.58-7.62,371.43,1.47,338.21a12.36,12.36,0,0,0-.93-8.31c-66.89-124.43-9.62-280,122-331A234.34,234.34,0,0,1,207.89-17.37Zm65.23,348.14c13.45.61,26.3-4.59,38.47-12.53,15-9.78,19.2-24.41,19.21-40.95,0-2.33-1.88-5.82-3.86-6.8q-25.5-12.57-51.42-24.28c-5.88-2.64-8.27-1.28-12.41,3.89-5.92,7.41-12,14.67-18,22.07-3.44,4.27-7.43,4.93-12.43,2.95q-53-20.92-82.42-69.63c-4-6.52-3.43-8.54,1.56-14.54a174.21,174.21,0,0,0,14.42-19.6c1.48-2.39,1.59-6.69.52-9.4-6.24-15.77-13.06-31.31-19.61-47-2.67-6.37-6.92-10-14.22-9.25a56.27,56.27,0,0,1-8-.2c-7.45-.34-13.54,2.38-18.79,7.66C85.25,134.27,80.5,159,89.39,186.79c5.94,18.56,17.17,34.1,28.9,49.29,30.43,39.42,66.91,70.82,115.17,86.61C246,326.79,258.36,331.27,273.12,330.77Z" transform="translate(27.55 17.37)"/></svg>